P2
16 7
15
0  0  0  0  0  0  0  0  0  0  0  0  0  0  0  0
0  0 15 15  0  0 11 11 11  0  0  0  7  7  7  0
0 15  0  0 15  0 11  0  0 11  0  7  0  0  0  0
0 15 15 15 15  0 11 11 11  0  0  7  0  0  0  0
0 15  0  0 15  0 11  0  0 11  0  7  0  0  0  0
0 15  0  0 15  0 11 11 11  0  0  0  7  7  7  0
0  0  0  0  0  0  0  0  0  0  0  0  0  0  0  0