P3
3 3
255
255   0   0   0 255   0 255 255   0
0   0 255 255 255 255 210 105  30
200  25 180   0   0   0  34 139  34